<svg width="18" height="19" viewBox="0 0 18 19" fill="none" xmlns="http://www.w3.org/2000/svg">
<path d="M8.92857 7.2381H10.7143V4.52381H13.3929V2.71429H10.7143V0H8.92857V2.71429H6.25V4.52381H8.92857V7.2381ZM5.35714 15.381C4.375 15.381 3.58036 16.1952 3.58036 17.1905C3.58036 18.1857 4.375 19 5.35714 19C6.33929 19 7.14286 18.1857 7.14286 17.1905C7.14286 16.1952 6.33929 15.381 5.35714 15.381ZM14.2857 15.381C13.3036 15.381 12.5089 16.1952 12.5089 17.1905C12.5089 18.1857 13.3036 19 14.2857 19C15.2679 19 16.0714 18.1857 16.0714 17.1905C16.0714 16.1952 15.2679 15.381 14.2857 15.381ZM5.50893 12.4405L5.53571 12.3319L6.33929 10.8571H12.9911C13.6607 10.8571 14.25 10.4862 14.5536 9.92524L18 3.58286L16.4464 2.71429H16.4375L15.4554 4.52381L12.9911 9.04762H6.72321L6.60714 8.80333L4.60714 4.52381L3.75893 2.71429L2.91964 0.904762H0V2.71429H1.78571L5 9.58143L3.79464 11.7981C3.65179 12.0514 3.57143 12.35 3.57143 12.6667C3.57143 13.6619 4.375 14.4762 5.35714 14.4762H16.0714V12.6667H5.73214C5.61607 12.6667 5.50893 12.5671 5.50893 12.4405Z" fill="black"/>
</svg>
