<svg width="21" height="18" viewBox="0 0 21 18" fill="none" xmlns="http://www.w3.org/2000/svg">
<path d="M1.35686 7.8L3.38758 1.2H1.19998V0C1.68654 0 18.7579 0 19.28 0V1.2H17.0924L19.1232 7.8H20.48V8.4C20.48 10.7159 18.5959 12.6 16.28 12.6C13.9641 12.6 12.08 10.7159 12.08 8.4V7.8H13.4368L15.4676 1.2H10.84V14.4H13.84V16.8H15.04V18H5.43998V16.8H6.63998V14.4H9.63998V1.2H5.01238L7.04318 7.8H8.39998V8.4C8.39998 10.7159 6.51586 12.6 4.19998 12.6C1.8841 12.6 -1.90735e-05 10.7159 -1.90735e-05 8.4V7.8H1.35686ZM17.8676 7.8L16.28 2.64024L14.6924 7.8H17.8676ZM4.19998 2.64024L2.61238 7.8H5.78758L4.19998 2.64024Z" fill="black"/>
</svg>
